<?xml version="1.0" standalone="no"?>
<!DOCTYPE svg PUBLIC "-//W3C//DTD SVG 20010904//EN"
 "http://www.w3.org/TR/2001/REC-SVG-20010904/DTD/svg10.dtd">
<svg version="1.0" xmlns="http://www.w3.org/2000/svg"
 width="534.000000pt" height="534.000000pt" viewBox="0 0 534.000000 534.000000"
 preserveAspectRatio="xMidYMid meet">
<metadata>
Created by potrace 1.14, written by Peter Selinger 2001-2017
</metadata>
<g transform="translate(0.000000,534.000000) scale(0.100000,-0.100000)"
fill="#000000" stroke="none">
<path d="M2495 5161 c-9 -9 -152 -25 -204 -24 -18 1 -20 -1 -10 -8 10 -6 3 -9
-23 -10 -21 -1 -42 -3 -48 -4 -5 -1 -26 -3 -46 -4 -21 0 -33 -5 -29 -11 4 -6
-8 -10 -29 -10 -20 0 -36 -4 -36 -9 0 -5 -25 -13 -55 -16 -30 -4 -55 -11 -55
-15 0 -5 -19 -11 -42 -15 -24 -4 -45 -11 -48 -16 -5 -8 -37 -17 -68 -18 -7 -1
-10 -6 -7 -12 4 -6 1 -10 -6 -8 -8 1 -23 1 -34 0 -17 -1 -18 -3 -5 -11 13 -9
13 -10 0 -11 -36 -2 -65 -10 -68 -19 -2 -6 -8 -10 -13 -10 -15 0 -89 -34 -89
-42 0 -3 -14 -9 -30 -13 -16 -4 -30 -10 -30 -15 0 -5 -14 -11 -30 -15 -17 -4
-28 -10 -25 -15 4 -7 -9 -13 -38 -18 -15 -3 -35 -27 -29 -37 3 -5 1 -7 -3 -2
-5 4 -19 0 -32 -8 -13 -9 -23 -13 -23 -10 0 3 -9 -4 -20 -15 -12 -12 -26 -18
-32 -14 -6 4 -8 3 -5 -3 4 -6 -5 -15 -18 -21 -14 -7 -25 -16 -25 -22 0 -6 -4
-9 -9 -6 -5 4 -11 2 -13 -3 -4 -13 -96 -81 -109 -81 -5 0 -8 -3 -6 -7 2 -5 -4
-16 -15 -25 -10 -10 -18 -15 -18 -12 0 3 -18 -14 -41 -38 -22 -23 -45 -42 -50
-41 -5 2 -9 -2 -9 -7 0 -14 -37 -50 -44 -43 -3 4 -6 1 -6 -5 0 -7 -20 -31 -45
-55 -25 -24 -45 -49 -45 -56 0 -6 -7 -11 -16 -11 -8 0 -13 -4 -9 -9 5 -9 -2
-17 -40 -49 -8 -7 -12 -18 -9 -24 4 -6 3 -9 -2 -6 -5 3 -15 0 -22 -8 -7 -8 -9
-14 -5 -14 4 0 1 -6 -8 -13 -9 -7 -19 -22 -23 -34 -4 -12 -16 -25 -27 -28 -10
-4 -19 -15 -19 -25 0 -11 -7 -23 -16 -28 -9 -5 -16 -11 -15 -13 2 -15 -13 -48
-20 -43 -5 3 -9 0 -9 -6 0 -6 -7 -18 -15 -27 -9 -8 -14 -20 -12 -26 2 -6 -5
-19 -15 -29 -10 -10 -18 -25 -18 -33 0 -8 -5 -15 -11 -15 -5 0 -7 -4 -4 -10 3
-5 1 -10 -4 -10 -6 0 -11 -9 -11 -21 0 -11 -4 -17 -10 -14 -6 3 -10 -5 -10
-18 0 -14 -7 -28 -16 -31 -8 -3 -12 -10 -9 -16 3 -6 -1 -13 -10 -16 -13 -6
-14 -8 -3 -15 8 -6 9 -9 1 -9 -6 0 -15 -15 -18 -32 -4 -18 -12 -39 -18 -46 -6
-8 -12 -24 -14 -35 -3 -25 -24 -69 -36 -78 -5 -3 -9 -22 -10 -42 -1 -22 -7
-37 -14 -37 -7 0 -13 -8 -14 -17 0 -10 -2 -25 -4 -33 -2 -8 -5 -24 -7 -35 -2
-11 -7 -26 -12 -33 -4 -7 -9 -35 -11 -63 -2 -27 -9 -57 -17 -66 -7 -9 -12 -18
-10 -20 1 -1 2 -12 2 -24 0 -13 -4 -18 -12 -13 -8 5 -7 0 2 -11 9 -11 10 -16
2 -11 -8 5 -12 -1 -12 -19 0 -18 4 -24 13 -19 9 6 9 5 0 -7 -14 -17 -24 -67
-25 -121 0 -25 -4 -35 -12 -31 -6 4 -4 -2 4 -12 9 -11 10 -16 3 -11 -17 9 -17
-6 0 -23 9 -11 9 -13 -1 -7 -9 6 -12 -17 -13 -96 -1 -57 -2 -136 -3 -176 -1
-56 3 -76 14 -83 9 -5 10 -9 3 -9 -7 0 -12 -16 -11 -41 0 -27 3 -37 9 -28 6 9
9 10 9 2 0 -6 -5 -15 -11 -19 -8 -4 -7 -9 2 -14 10 -7 10 -12 0 -23 -9 -11 -9
-16 0 -19 7 -2 12 -27 13 -58 1 -30 5 -60 8 -65 4 -6 5 -23 4 -38 -2 -14 1
-24 5 -21 5 3 9 -10 9 -28 0 -25 3 -29 10 -18 13 21 13 3 -1 -22 -6 -12 -7
-18 -1 -14 12 7 20 -11 17 -44 -1 -14 5 -31 14 -38 9 -8 10 -11 4 -7 -8 4 -13
0 -13 -9 0 -9 4 -16 8 -16 5 0 9 -6 9 -12 1 -31 13 -68 28 -92 9 -14 14 -30
10 -36 -4 -6 1 -18 11 -26 11 -9 13 -13 7 -9 -17 8 -17 -20 0 -34 8 -6 17 -7
22 -3 4 4 2 -4 -5 -17 -8 -15 -8 -21 -1 -17 6 4 12 0 12 -8 3 -36 6 -41 19
-38 11 3 11 0 -1 -14 -8 -10 -9 -15 -3 -11 7 4 15 0 18 -9 3 -8 2 -13 -3 -10
-5 4 -4 -5 2 -19 7 -14 16 -25 20 -25 5 0 5 -4 2 -10 -3 -5 -1 -10 5 -10 6 0
10 -6 9 -13 -3 -27 1 -48 10 -43 5 3 15 -2 22 -11 11 -13 11 -15 1 -9 -11 7
-11 4 0 -13 7 -12 20 -21 28 -22 10 0 11 -2 3 -6 -17 -6 -16 -23 1 -23 8 0 14
-6 13 -12 -1 -32 4 -48 14 -45 6 1 13 -5 14 -13 5 -24 35 -77 35 -61 0 19 11
8 15 -16 1 -10 8 -17 16 -15 9 2 9 -1 -2 -14 -8 -10 -9 -15 -2 -11 7 4 14 -1
18 -12 3 -11 15 -23 27 -27 16 -5 18 -8 7 -15 -11 -7 -11 -9 3 -9 11 0 15 -5
12 -14 -3 -8 5 -21 18 -30 12 -9 18 -16 13 -16 -6 -1 1 -7 15 -15 22 -13 23
-14 5 -15 l-20 -1 20 -8 c11 -5 25 -6 30 -3 6 3 3 -3 -5 -13 -9 -11 -10 -16
-2 -11 7 4 12 2 12 -4 0 -6 5 -8 12 -4 6 4 9 3 5 -2 -7 -12 11 -35 45 -57 16
-9 27 -21 27 -25 -4 -21 4 -33 29 -46 15 -8 26 -18 25 -23 -2 -4 3 -8 10 -8 6
-1 11 -6 10 -13 -2 -6 8 -14 22 -18 14 -3 25 -12 25 -20 0 -8 13 -22 30 -33
16 -10 27 -21 23 -24 -3 -4 -1 -7 6 -7 7 0 9 -5 5 -12 -5 -8 -2 -8 10 1 14 12
17 12 14 1 -2 -8 4 -15 12 -15 8 0 14 -6 13 -13 -2 -7 5 -12 15 -12 14 0 15
-2 2 -10 -13 -8 -13 -10 3 -11 31 -3 35 -4 44 -13 5 -5 3 -6 -4 -2 -7 4 -13 2
-13 -3 0 -6 5 -12 10 -12 6 -1 15 -3 20 -4 6 -1 16 -3 23 -4 8 -1 7 -4 -3 -11
-12 -8 -11 -10 7 -10 14 0 28 -10 37 -27 8 -16 15 -22 16 -15 0 7 12 0 26 -15
15 -15 21 -20 14 -10 -11 15 -10 17 3 11 8 -3 18 -12 21 -20 3 -8 13 -14 21
-14 9 0 13 -5 10 -10 -5 -9 16 -15 38 -11 5 1 6 -3 2 -9 -6 -9 7 -14 28 -11 4
0 7 -6 7 -14 0 -8 5 -15 11 -15 5 0 7 6 4 13 -4 6 0 4 8 -5 8 -10 19 -18 26
-18 6 0 11 -6 11 -12 0 -9 4 -8 10 2 8 13 10 12 10 -4 0 -11 3 -17 6 -13 7 6
64 -19 64 -29 0 -3 -5 -2 -12 2 -7 4 -8 3 -4 -5 6 -9 11 -9 24 1 9 7 13 8 9 2
-4 -7 2 -14 14 -17 12 -3 19 -10 15 -15 -3 -5 1 -9 9 -9 8 0 12 4 9 9 -3 4 -1
8 4 8 6 0 13 -7 16 -16 3 -9 13 -14 21 -11 8 4 16 -2 20 -13 4 -12 13 -17 25
-15 11 2 22 0 25 -6 4 -5 15 -14 27 -20 16 -8 19 -8 13 1 -5 8 -3 11 6 8 8 -3
13 -11 11 -18 -2 -10 1 -10 14 1 10 8 15 9 11 2 -6 -9 7 -14 42 -19 31 -4 48
-11 45 -18 -3 -7 10 -11 32 -12 20 -1 40 -8 45 -15 6 -10 9 -11 9 -1 0 6 5 12
10 12 6 0 10 -6 10 -14 0 -8 5 -18 12 -22 7 -4 8 -3 4 4 -4 7 -1 12 8 12 8 0
16 -5 18 -10 2 -6 20 -11 41 -12 20 -1 37 -5 37 -9 0 -5 7 -6 15 -3 8 4 23 0
32 -7 12 -10 15 -10 9 -1 -4 6 -3 12 3 12 5 0 11 -5 13 -11 2 -7 33 -13 73
-15 41 -2 72 -9 77 -16 6 -10 8 -10 8 0 0 6 8 12 18 12 14 0 15 -2 2 -10 -11
-7 2 -10 45 -11 33 0 76 -2 95 -4 116 -12 493 -1 498 15 2 6 11 10 20 10 15 0
15 -2 2 -10 -9 -6 -10 -10 -3 -10 6 0 14 4 18 10 3 5 22 9 43 8 20 -1 45 2 55
7 10 4 20 5 24 2 3 -4 19 1 35 9 16 9 36 13 43 10 7 -2 16 -2 20 2 3 4 21 7
38 8 17 1 33 7 35 13 3 9 8 9 20 -1 12 -10 14 -10 8 0 -4 7 -1 12 9 12 9 0 14
4 11 8 -3 5 7 9 22 10 49 2 85 10 91 20 3 5 23 12 44 16 21 4 35 11 32 17 -4
5 -1 9 4 9 6 0 11 -6 11 -12 0 -8 3 -9 8 -3 10 14 71 45 88 45 8 0 14 4 14 10
0 5 7 7 15 4 8 -4 15 -1 15 6 0 7 6 10 14 7 8 -3 17 0 19 7 3 8 18 17 34 21
15 3 31 12 35 18 6 9 8 9 8 -1 0 -10 3 -10 14 0 8 7 12 16 10 20 -2 3 9 9 26
13 16 4 30 11 30 16 0 6 5 7 10 4 6 -3 10 -1 10 5 0 6 5 8 10 5 6 -3 13 1 16
9 3 9 10 16 16 16 5 0 6 -6 3 -12 -4 -7 0 -5 8 4 8 10 17 15 20 11 4 -3 7 1 7
10 0 10 6 17 14 17 8 0 16 7 20 15 3 8 12 15 21 15 8 0 15 6 15 13 0 8 4 7 10
-3 8 -13 10 -12 10 3 0 10 4 16 9 12 5 -3 12 -1 16 5 4 6 11 7 17 4 7 -4 8 -2
4 5 -4 6 0 14 11 18 10 4 27 17 38 30 11 13 26 23 33 23 7 0 10 5 7 10 -3 6 0
10 7 10 7 0 24 12 37 25 12 14 28 22 34 18 6 -3 7 -1 3 5 -4 7 -2 12 4 12 6 0
8 5 5 10 -3 6 1 10 10 10 8 0 23 9 32 20 10 11 24 20 32 20 8 0 11 3 8 7 -10
10 104 114 117 106 6 -3 8 -3 4 2 -10 11 11 47 23 40 5 -4 9 3 9 15 0 12 4 18
10 15 6 -4 7 1 3 11 -5 13 -3 16 10 11 11 -4 18 1 22 14 4 10 11 19 16 19 6 0
7 5 4 10 -3 6 1 10 9 10 9 0 16 7 16 16 0 8 6 22 13 29 26 30 37 44 37 50 0 9
38 44 43 39 2 -3 7 10 11 27 3 17 14 39 24 48 10 9 21 24 25 34 3 9 13 17 21
17 10 0 12 7 8 22 -3 13 -1 19 5 15 7 -5 9 0 6 12 -3 11 2 21 11 24 9 4 16 16
16 27 0 11 5 20 10 20 6 0 10 7 10 15 0 8 6 15 13 15 6 0 13 12 14 26 0 15 5
29 11 33 5 3 13 17 17 31 4 13 14 30 21 38 8 7 14 24 14 38 0 14 6 24 14 24 9
0 12 7 9 20 -3 11 0 20 6 20 6 0 11 11 11 25 0 14 4 25 10 25 5 0 7 7 4 15 -4
8 -2 15 4 15 5 0 13 21 17 48 4 26 11 50 16 53 5 3 12 29 16 57 3 29 10 52 14
52 5 0 9 14 9 30 0 17 4 30 9 30 6 0 13 31 17 70 4 47 10 67 18 63 6 -4 5 0
-2 9 -7 9 -9 18 -4 20 8 2 25 156 24 210 -1 10 3 20 9 23 5 4 9 22 9 41 0 19
4 34 9 34 5 0 10 70 10 156 1 87 -2 153 -7 150 -5 -3 -9 1 -9 9 0 8 4 12 9 9
4 -3 8 0 8 5 0 6 -4 11 -10 11 -6 0 -10 27 -10 61 0 45 -3 58 -12 53 -9 -5 -9
-2 1 9 7 9 9 17 3 17 -5 0 -13 38 -17 85 -4 47 -10 83 -15 80 -4 -2 -11 27
-14 65 -4 39 -11 70 -17 70 -5 0 -9 15 -9 33 0 21 -3 28 -9 18 -6 -8 -11 6
-15 43 -4 31 -11 56 -15 56 -5 0 -11 17 -15 38 -3 21 -13 52 -21 70 -9 17 -17
40 -18 51 0 11 -5 17 -9 15 -4 -3 -8 2 -8 11 0 9 -5 13 -10 10 -6 -4 -10 -3
-8 2 4 15 -14 73 -22 73 -5 0 -12 15 -15 33 -4 17 -10 34 -14 37 -3 3 -15 23
-26 45 -11 22 -26 46 -32 53 -7 7 -13 20 -13 28 0 8 -4 14 -10 14 -5 0 -12 11
-16 25 -3 14 -10 25 -15 25 -5 0 -9 7 -9 15 0 9 -7 18 -15 21 -8 4 -12 10 -9
15 3 5 -2 12 -10 15 -8 3 -18 15 -22 27 -3 11 -15 29 -25 40 -10 11 -16 25
-12 30 3 6 2 7 -4 4 -5 -3 -16 3 -24 15 -8 11 -21 27 -29 36 -8 9 -15 18 -15
22 0 4 -7 13 -15 22 -8 9 -21 25 -29 36 -8 12 -18 19 -22 17 -4 -3 -10 6 -13
20 -4 14 -13 25 -21 25 -8 0 -15 5 -15 11 0 15 -150 159 -166 159 -8 0 -14 7
-14 15 0 8 -6 15 -14 15 -8 0 -17 9 -21 19 -3 11 -14 23 -23 26 -9 3 -32 19
-51 35 -18 17 -38 30 -43 30 -5 0 -6 5 -2 12 4 7 3 8 -4 4 -6 -4 -19 2 -29 14
-10 11 -23 20 -30 20 -7 0 -13 4 -13 9 0 5 -10 13 -22 17 -12 3 -28 13 -36 20
-7 8 -20 14 -27 14 -8 0 -16 9 -20 19 -3 12 -19 21 -39 25 -19 4 -37 13 -40
21 -3 8 -12 15 -20 15 -13 0 -74 28 -86 40 -13 13 -70 40 -85 40 -9 0 -13 5
-10 10 3 6 -4 10 -17 10 -13 0 -43 11 -67 25 -24 14 -61 28 -82 31 -22 4 -39
10 -39 15 0 4 -20 11 -45 15 -25 3 -43 10 -40 14 3 5 -20 12 -50 15 -30 4 -55
11 -55 16 0 5 -13 9 -30 9 -17 0 -30 5 -30 13 0 9 -3 8 -9 -2 -5 -8 -10 -9
-12 -3 -4 11 -43 20 -97 21 -18 1 -31 5 -28 9 2 4 -3 8 -12 8 -9 0 -53 4 -97
7 -44 4 -97 8 -117 9 -21 1 -38 7 -38 12 0 6 -5 5 -12 -2 -7 -7 -19 -12 -28
-11 -10 0 -9 3 5 9 12 5 -40 8 -130 8 -90 1 -155 -4 -162 -10 -9 -7 -13 -7
-13 1 0 6 -5 11 -11 11 -5 0 -7 -6 -3 -12 5 -9 2 -9 -9 1 -11 9 -17 10 -17 2
0 -6 -7 -11 -16 -11 -8 0 -12 5 -9 10 8 12 2 13 -10 1z m462 -1289 c12 -7 33
-12 48 -12 18 0 24 -4 19 -12 -5 -8 0 -7 11 2 10 8 16 10 12 4 -4 -8 8 -14 38
-18 25 -4 45 -11 45 -15 0 -5 20 -12 44 -15 24 -4 52 -16 61 -26 10 -11 26
-20 35 -20 10 0 23 -7 30 -15 7 -8 27 -17 46 -21 19 -3 32 -10 29 -14 -3 -5 4
-11 15 -15 11 -3 20 -11 20 -16 0 -5 6 -9 14 -9 8 0 30 -13 48 -30 18 -16 36
-30 41 -30 11 0 57 -51 57 -63 0 -6 3 -8 6 -4 8 7 33 -15 28 -25 -2 -4 5 -9
15 -13 11 -3 23 -14 26 -25 3 -10 12 -21 20 -24 8 -3 15 -13 15 -21 0 -9 4
-14 9 -10 5 3 12 -4 16 -15 3 -11 11 -20 16 -20 5 0 9 -7 9 -16 0 -8 4 -13 9
-10 5 3 12 -5 15 -19 4 -14 11 -25 16 -25 6 0 10 -6 10 -14 0 -8 6 -21 13 -28
20 -22 47 -75 47 -93 0 -9 4 -13 10 -10 5 3 12 -12 16 -35 4 -22 10 -40 14
-40 4 0 11 -20 14 -45 4 -25 11 -45 17 -45 5 0 9 -11 9 -25 0 -14 4 -25 8 -25
5 0 9 -6 10 -12 9 -116 16 -157 26 -151 6 4 5 0 -2 -9 -7 -9 -9 -18 -4 -20 5
-1 12 -63 14 -136 3 -78 10 -138 17 -145 15 -15 14 -36 -4 -53 -8 -9 -15 -29
-15 -45 0 -16 -4 -29 -9 -29 -5 0 -13 -25 -16 -55 -4 -30 -11 -55 -16 -55 -5
0 -9 -7 -9 -15 0 -8 -4 -15 -9 -15 -5 0 -11 -18 -15 -39 -3 -22 -9 -41 -13
-43 -12 -5 -53 -93 -53 -112 0 -10 -4 -14 -10 -11 -5 3 -10 -2 -10 -12 0 -10
-9 -24 -20 -31 -11 -7 -17 -18 -14 -27 4 -10 0 -15 -10 -15 -9 0 -16 -7 -16
-15 0 -18 -56 -76 -64 -67 -3 3 -6 -5 -6 -17 0 -14 -4 -20 -12 -15 -7 4 -8 3
-4 -4 8 -14 -42 -64 -55 -56 -5 3 -9 1 -9 -5 0 -5 -13 -25 -30 -43 -17 -18
-30 -29 -30 -25 0 6 -27 -16 -81 -66 -11 -9 -30 -18 -43 -19 -16 -2 -22 -7
-18 -17 3 -8 1 -12 -5 -8 -5 3 -20 -3 -31 -14 -15 -13 -22 -15 -23 -7 0 7 -5
3 -11 -9 -10 -20 -32 -29 -60 -24 -5 0 -8 -6 -8 -14 0 -9 -9 -15 -22 -15 -13
0 -35 -6 -50 -14 -14 -8 -46 -17 -70 -20 -24 -3 -44 -11 -46 -16 -2 -6 -14
-10 -26 -10 -12 0 -28 -6 -35 -12 -11 -11 -14 -10 -18 1 -5 11 -7 11 -14 0 -7
-11 -58 -14 -260 -14 -204 0 -253 3 -257 14 -4 11 -6 11 -13 0 -6 -10 -9 -11
-9 -1 0 6 -7 12 -16 12 -9 0 -12 5 -8 13 5 8 2 8 -9 -2 -9 -7 -17 -9 -17 -3 0
5 -25 13 -57 17 -39 5 -52 10 -42 16 10 6 7 9 -13 9 -16 0 -31 0 -34 -1 -3 0
-12 8 -21 18 -8 10 -12 12 -8 6 3 -7 2 -13 -3 -13 -6 0 -13 7 -16 16 -3 8 -10
13 -16 9 -5 -3 -19 4 -30 15 -11 11 -26 18 -32 14 -7 -4 -8 -3 -4 4 7 11 -6
17 -27 13 -5 -1 -17 9 -27 21 -11 13 -19 19 -20 14 0 -5 -8 0 -17 10 -10 10
-25 20 -33 22 -22 5 -41 23 -34 33 3 5 0 10 -5 10 -6 1 -15 2 -20 3 -6 0 -16
7 -23 15 -11 12 -10 13 2 6 9 -5 12 -4 7 1 -5 5 -13 10 -18 10 -5 1 -13 2 -19
3 -5 0 -10 11 -10 23 0 12 -3 18 -7 15 -3 -4 -16 5 -29 18 -13 14 -29 25 -36
25 -9 0 -9 3 2 10 10 7 11 10 3 11 -7 1 -19 2 -25 3 -7 1 -12 10 -10 20 3 13
-1 17 -12 13 -10 -4 -13 -1 -9 9 3 7 -1 14 -8 14 -7 0 -10 3 -7 6 3 3 -5 17
-18 31 -14 15 -23 32 -20 39 3 8 0 11 -8 8 -8 -3 -17 0 -22 7 -5 8 -3 10 7 5
8 -4 7 -2 -2 6 -17 14 -19 18 -19 46 0 13 -2 14 -9 3 -6 -10 -11 -1 -16 28 -4
24 -12 41 -20 41 -8 0 -17 5 -21 12 -5 7 -3 8 7 3 8 -5 7 0 -4 12 -9 11 -14
23 -10 27 5 4 -1 14 -11 22 -11 8 -14 14 -8 14 7 0 12 5 12 11 0 5 -4 7 -10 4
-5 -3 -11 -1 -11 4 -1 6 -3 16 -4 21 -1 6 -3 17 -4 26 -1 9 -6 12 -13 8 -10
-6 -10 -4 0 8 7 9 9 17 3 20 -9 3 -18 40 -20 81 -1 10 -5 16 -9 13 -5 -3 -9 1
-9 9 0 8 4 12 9 9 4 -3 8 0 8 5 0 6 -4 11 -10 11 -5 0 -10 15 -10 33 0 18 -6
39 -12 46 -11 11 -10 12 2 6 12 -6 13 -5 3 6 -15 16 -17 33 -3 24 6 -4 5 5 -2
20 -10 22 -9 28 3 36 10 6 10 9 2 9 -7 0 -13 12 -13 28 0 15 6 34 13 41 10 11
10 13 0 7 -9 -5 -13 0 -13 14 0 12 4 19 9 16 5 -4 8 2 6 11 -2 10 -4 18 -5 18
-7 0 -6 63 1 77 5 10 13 27 19 38 6 13 6 21 -1 26 -7 4 -8 9 -1 13 8 5 18 51
24 119 1 6 5 12 9 12 5 0 11 23 15 51 4 28 10 45 14 39 5 -8 9 -4 13 9 3 14 1
19 -6 14 -7 -3 -5 2 4 13 9 10 14 24 12 31 -2 6 6 18 19 27 12 9 19 16 14 16
-5 0 -3 7 4 15 6 8 9 19 5 25 -4 6 -3 10 2 9 20 -3 27 2 13 11 -13 8 -12 10 3
10 10 0 17 8 17 21 0 11 5 17 10 14 6 -3 10 1 10 10 0 9 4 14 9 11 5 -4 12 7
16 23 3 16 13 32 21 35 8 3 14 12 14 21 0 8 5 14 12 12 7 -1 12 5 13 13 0 8 6
15 13 15 6 0 12 4 12 8 -1 4 13 21 29 38 16 16 38 39 48 52 10 12 34 33 53 46
19 14 39 31 43 38 5 7 12 11 18 8 5 -4 9 -1 9 5 0 6 5 8 12 4 8 -5 9 -2 5 10
-4 10 -3 15 3 11 6 -4 17 1 26 9 8 9 25 16 37 16 18 0 19 2 7 10 -10 7 -11 10
-2 11 6 1 17 2 22 3 6 0 15 8 20 16 9 13 10 13 10 0 0 -9 3 -11 8 -4 8 12 43
28 55 26 4 -1 7 3 7 8 0 6 6 10 14 10 8 0 16 5 18 11 2 6 19 13 38 15 19 2 36
8 39 13 3 5 26 12 51 16 25 4 50 11 56 16 6 5 27 10 46 11 20 2 34 6 32 10
-12 19 429 19 463 0z"/>
<path d="M830 976 c0 -2 7 -7 16 -10 8 -3 12 -2 9 4 -6 10 -25 14 -25 6z"/>
</g>
</svg>
